<svg width="180" height="43" viewBox="0 0 180 43" fill="none" xmlns="http://www.w3.org/2000/svg">
<path d="M21.6667 17.1909L43.3336 2.11019e-06L64.9999 17.1909L43.3336 34.3821L21.6667 17.1909" fill="white"/>
<path d="M0 17.191L21.6668 0.000105004L43.3336 17.191L21.6668 34.3822L0 17.191" fill="#3B557D"/>
<path d="M73.876 40.7183H69.6973V25.0132H78.9785V28.4185H73.876V31.4155H78.5811V34.8208H73.876V40.7183ZM81.5566 40.7183V25.0132H85.8213V40.7183H81.5566ZM89.2266 40.7183V25.0132H93.4697V37.2915H99.5176V40.7183H89.2266ZM102.031 40.7183V25.0132H106.296V40.7183H102.031ZM115.137 25.0132C117.128 25.0132 118.617 25.4465 119.605 26.313C120.601 27.1795 121.099 28.4113 121.099 30.0083C121.099 30.7245 120.995 31.412 120.787 32.0708C120.587 32.7297 120.254 33.3169 119.788 33.8325C119.33 34.3482 118.717 34.7564 117.951 35.0571C117.192 35.3579 116.254 35.5083 115.137 35.5083H113.944V40.7183H109.701V25.0132H115.137ZM115.04 28.44H113.944V32.0493H114.782C115.147 32.0493 115.488 31.9885 115.803 31.8667C116.118 31.7378 116.368 31.5337 116.555 31.2544C116.748 30.968 116.845 30.5884 116.845 30.1157C116.845 29.6216 116.698 29.2206 116.404 28.9126C116.111 28.5975 115.656 28.44 115.04 28.44ZM129.037 25.0132C131.028 25.0132 132.518 25.4465 133.506 26.313C134.501 27.1795 134.999 28.4113 134.999 30.0083C134.999 30.7245 134.895 31.412 134.688 32.0708C134.487 32.7297 134.154 33.3169 133.688 33.8325C133.23 34.3482 132.618 34.7564 131.852 35.0571C131.092 35.3579 130.154 35.5083 129.037 35.5083H127.845V40.7183H123.602V25.0132H129.037ZM128.94 28.44H127.845V32.0493H128.683C129.048 32.0493 129.388 31.9885 129.703 31.8667C130.018 31.7378 130.269 31.5337 130.455 31.2544C130.648 30.968 130.745 30.5884 130.745 30.1157C130.745 29.6216 130.598 29.2206 130.305 28.9126C130.011 28.5975 129.556 28.44 128.94 28.44ZM152.197 32.8443C152.197 34.0545 152.05 35.1574 151.757 36.1528C151.47 37.1411 151.019 37.9933 150.403 38.7095C149.787 39.4256 148.996 39.9771 148.029 40.3638C147.062 40.7433 145.906 40.9331 144.56 40.9331C143.242 40.9331 142.1 40.7433 141.133 40.3638C140.173 39.9771 139.382 39.4292 138.759 38.7202C138.136 38.0041 137.674 37.1483 137.373 36.1528C137.072 35.1574 136.922 34.0474 136.922 32.8228C136.922 31.19 137.19 29.772 137.728 28.5689C138.272 27.3586 139.11 26.424 140.241 25.7652C141.373 25.0991 142.819 24.7661 144.581 24.7661C146.371 24.7661 147.825 25.0991 148.942 25.7652C150.067 26.4312 150.89 27.3693 151.413 28.5796C151.936 29.7899 152.197 31.2114 152.197 32.8443ZM141.391 32.8443C141.391 33.7896 141.498 34.6024 141.713 35.2827C141.928 35.9631 142.268 36.4859 142.733 36.8511C143.199 37.2163 143.808 37.3989 144.56 37.3989C145.34 37.3989 145.96 37.2163 146.418 36.8511C146.883 36.4859 147.216 35.9631 147.417 35.2827C147.625 34.6024 147.729 33.7896 147.729 32.8443C147.729 31.4263 147.492 30.3055 147.02 29.4819C146.547 28.6584 145.734 28.2466 144.581 28.2466C143.815 28.2466 143.195 28.4328 142.723 28.8052C142.257 29.1776 141.917 29.7075 141.702 30.395C141.494 31.0825 141.391 31.8989 141.391 32.8443ZM168.601 25.0132L163.455 40.7183H158.46L153.336 25.0132H158.105L160.243 32.9732C160.322 33.2739 160.411 33.6607 160.512 34.1333C160.619 34.5988 160.716 35.0643 160.802 35.5298C160.895 35.9953 160.952 36.3749 160.974 36.6685C161.002 36.3749 161.056 35.9989 161.135 35.5405C161.214 35.0822 161.299 34.6239 161.393 34.1655C161.493 33.7 161.586 33.3169 161.672 33.0161L163.853 25.0132H168.601Z" fill="#3B557D"/>
</svg>
